<svg width="40" height="40" viewBox="0 0 40 40" fill="none" xmlns="http://www.w3.org/2000/svg">
<rect x="1" y="1" width="38" height="38" rx="19" stroke="white" stroke-width="2"/>
<path d="M34.2728 18.7351C27.188 16.7075 24.523 13.9037 22.2607 6.7276C21.792 6.2616 21.1579 6 20.4969 6C19.8359 6 19.2017 6.2616 18.7331 6.7276C16.3905 14.2635 13.5479 16.6436 6.7285 18.7351C6.26194 19.2036 6 19.8378 6 20.4989C6 21.1599 6.26194 21.7941 6.7285 22.2626C14.5729 23.4004 16.8503 26.47 18.7393 34.2701C19.208 34.7361 19.8421 34.9977 20.5031 34.9977C21.1641 34.9977 21.7983 34.7361 22.2669 34.2701C24.1779 25.9597 26.3041 22.6858 34.2715 22.2626C34.7381 21.7941 35 21.1599 35 20.4989C35 19.8378 34.7381 19.2036 34.2715 18.7351H34.2728ZM20.4975 31.7901C18.5644 25.5174 25.7527 21.5111 17.5 20C24.5961 17.495 19.1611 15.796 20.4975 9.2076C22.3581 15.8702 24.7756 18.4026 31.7918 20.4989C24.7417 21.0435 22.3921 23.6782 20.4975 31.7901Z" fill="url(#paint0_linear_150_15317)"/>
<path d="M34.2728 18.7351C27.188 16.7075 24.523 13.9037 22.2607 6.7276C21.792 6.2616 21.1579 6 20.4969 6C19.8359 6 19.2017 6.2616 18.7331 6.7276C16.3905 14.2635 13.5479 16.6436 6.7285 18.7351C6.26194 19.2036 6 19.8378 6 20.4989C6 21.1599 6.26194 21.7941 6.7285 22.2626C14.5729 23.4004 16.8503 26.47 18.7393 34.2701C19.208 34.7361 19.8421 34.9977 20.5031 34.9977C21.1641 34.9977 21.7983 34.7361 22.2669 34.2701C24.1779 25.9597 26.3041 22.6858 34.2715 22.2626C34.7381 21.7941 35 21.1599 35 20.4989C35 19.8378 34.7381 19.2036 34.2715 18.7351H34.2728ZM20.4975 31.7901C18.5644 25.5174 25.7527 21.5111 17.5 20C24.5961 17.495 19.1611 15.796 20.4975 9.2076C22.3581 15.8702 24.7756 18.4026 31.7918 20.4989C24.7417 21.0435 22.3921 23.6782 20.4975 31.7901Z" fill="#00FF47"/>
<defs>
<linearGradient id="paint0_linear_150_15317" x1="20.5" y1="6" x2="20.5" y2="34.9977" gradientUnits="userSpaceOnUse">
<stop/>
<stop offset="0.918457" stop-color="#15B52F" stop-opacity="0.6"/>
</linearGradient>
</defs>
</svg>
