<svg width="156" height="40" viewBox="0 0 156 40" fill="none" xmlns="http://www.w3.org/2000/svg">
<rect x="1" y="1" width="38" height="38" rx="19" stroke="white" stroke-width="2"/>
<path d="M34.2728 18.7351C27.188 16.7075 24.523 13.9037 22.2607 6.7276C21.792 6.2616 21.1579 6 20.4969 6C19.8359 6 19.2017 6.2616 18.7331 6.7276C16.3905 14.2635 13.5479 16.6436 6.7285 18.7351C6.26194 19.2036 6 19.8378 6 20.4989C6 21.1599 6.26194 21.7941 6.7285 22.2626C14.5729 23.4004 16.8503 26.47 18.7393 34.2701C19.208 34.7361 19.8421 34.9977 20.5031 34.9977C21.1641 34.9977 21.7983 34.7361 22.2669 34.2701C24.1779 25.9597 26.3041 22.6858 34.2715 22.2626C34.7381 21.7941 35 21.1599 35 20.4989C35 19.8378 34.7381 19.2036 34.2715 18.7351H34.2728ZM20.4975 31.7901C18.5644 25.5174 25.7527 21.5111 17.5 20C24.5961 17.495 19.1611 15.796 20.4975 9.2076C22.3581 15.8702 24.7756 18.4026 31.7918 20.4989C24.7417 21.0435 22.3921 23.6782 20.4975 31.7901Z" fill="url(#paint0_linear_74_2453)"/>
<path d="M34.2728 18.7351C27.188 16.7075 24.523 13.9037 22.2607 6.7276C21.792 6.2616 21.1579 6 20.4969 6C19.8359 6 19.2017 6.2616 18.7331 6.7276C16.3905 14.2635 13.5479 16.6436 6.7285 18.7351C6.26194 19.2036 6 19.8378 6 20.4989C6 21.1599 6.26194 21.7941 6.7285 22.2626C14.5729 23.4004 16.8503 26.47 18.7393 34.2701C19.208 34.7361 19.8421 34.9977 20.5031 34.9977C21.1641 34.9977 21.7983 34.7361 22.2669 34.2701C24.1779 25.9597 26.3041 22.6858 34.2715 22.2626C34.7381 21.7941 35 21.1599 35 20.4989C35 19.8378 34.7381 19.2036 34.2715 18.7351H34.2728ZM20.4975 31.7901C18.5644 25.5174 25.7527 21.5111 17.5 20C24.5961 17.495 19.1611 15.796 20.4975 9.2076C22.3581 15.8702 24.7756 18.4026 31.7918 20.4989C24.7417 21.0435 22.3921 23.6782 20.4975 31.7901Z" fill="#00FF47"/>
<path d="M52.684 28C52.876 26.668 53.038 25.342 53.17 24.022C53.302 22.69 53.416 21.316 53.512 19.9C53.62 18.484 53.716 16.984 53.8 15.4H61.558C61.642 16.984 61.732 18.484 61.828 19.9C61.936 21.316 62.056 22.69 62.188 24.022C62.332 25.342 62.494 26.668 62.674 28H61.504C61.504 27.892 61.498 27.736 61.486 27.532C61.486 27.316 61.474 27.1 61.45 26.884C61.438 26.548 61.408 26.248 61.36 25.984C61.312 25.708 61.222 25.516 61.09 25.408C61.042 25.372 60.976 25.342 60.892 25.318C60.808 25.282 60.652 25.252 60.424 25.228C60.208 25.204 59.878 25.186 59.434 25.174C59.002 25.162 58.414 25.156 57.67 25.156C56.926 25.156 56.338 25.162 55.906 25.174C55.474 25.186 55.144 25.204 54.916 25.228C54.7 25.252 54.55 25.282 54.466 25.318C54.382 25.342 54.316 25.372 54.268 25.408C54.136 25.516 54.046 25.708 53.998 25.984C53.95 26.248 53.92 26.548 53.908 26.884C53.884 27.1 53.866 27.316 53.854 27.532C53.854 27.736 53.854 27.892 53.854 28H52.684ZM57.67 22.33C58.21 22.33 58.666 22.324 59.038 22.312C59.422 22.3 59.74 22.282 59.992 22.258C60.256 22.222 60.46 22.174 60.604 22.114C60.748 22.042 60.856 21.952 60.928 21.844C60.964 21.712 60.982 21.532 60.982 21.304C60.994 21.076 60.988 20.77 60.964 20.386C60.94 20.074 60.916 19.828 60.892 19.648C60.88 19.468 60.862 19.33 60.838 19.234C60.826 19.138 60.808 19.072 60.784 19.036C60.76 18.988 60.736 18.952 60.712 18.928C60.604 18.82 60.43 18.742 60.19 18.694C59.95 18.646 59.626 18.616 59.218 18.604C58.81 18.592 58.294 18.586 57.67 18.586C57.058 18.586 56.542 18.592 56.122 18.604C55.714 18.616 55.396 18.646 55.168 18.694C54.94 18.742 54.766 18.82 54.646 18.928C54.622 18.952 54.598 18.988 54.574 19.036C54.55 19.072 54.526 19.138 54.502 19.234C54.49 19.33 54.472 19.468 54.448 19.648C54.436 19.828 54.418 20.074 54.394 20.386C54.37 20.77 54.358 21.076 54.358 21.304C54.37 21.532 54.394 21.712 54.43 21.844C54.502 21.952 54.61 22.042 54.754 22.114C54.898 22.174 55.096 22.222 55.348 22.258C55.612 22.282 55.93 22.3 56.302 22.312C56.686 22.324 57.142 22.33 57.67 22.33ZM64.981 28L65.089 21.826H63.667V19.126H65.089C65.089 18.994 65.089 18.862 65.089 18.73C65.089 18.598 65.089 18.442 65.089 18.262C65.089 17.71 65.113 17.212 65.161 16.768C65.221 16.324 65.341 15.94 65.521 15.616C65.713 15.292 65.995 15.046 66.367 14.878C66.751 14.71 67.273 14.626 67.933 14.626C68.257 14.626 68.563 14.65 68.851 14.698C69.139 14.746 69.391 14.794 69.607 14.842V17.308C69.355 17.224 69.067 17.146 68.743 17.074C68.431 17.002 68.119 16.966 67.807 16.966C67.459 16.966 67.147 17.008 66.871 17.092C66.607 17.176 66.391 17.326 66.223 17.542C66.055 17.746 65.959 18.022 65.935 18.37C65.935 18.55 65.935 18.694 65.935 18.802C65.935 18.91 65.935 19.018 65.935 19.126H69.067V21.826H65.935L66.043 28H64.981ZM70.2559 28C70.2679 27.604 70.2739 27.208 70.2739 26.812C70.2859 26.416 70.2919 26.02 70.2919 25.624C70.3039 25.228 70.3099 24.85 70.3099 24.49C70.3099 24.118 70.3099 23.77 70.3099 23.446C70.3099 23.122 70.3099 22.774 70.3099 22.402C70.3099 22.03 70.3039 21.652 70.2919 21.268C70.2919 20.872 70.2859 20.494 70.2739 20.134C70.2739 19.762 70.2679 19.426 70.2559 19.126H71.2999C71.2879 19.342 71.2759 19.564 71.2639 19.792C71.2519 20.02 71.2459 20.206 71.2459 20.35C71.2459 20.578 71.2519 20.74 71.2639 20.836C71.2759 20.932 71.3239 20.98 71.4079 20.98C71.4679 20.98 71.5399 20.932 71.6239 20.836C71.7079 20.74 71.8399 20.56 72.0199 20.296C72.1399 20.116 72.3139 19.924 72.5419 19.72C72.7699 19.504 73.0579 19.318 73.4059 19.162C73.7659 19.006 74.2099 18.928 74.7379 18.928C74.9539 18.928 75.1639 18.946 75.3679 18.982C75.5839 19.006 75.7819 19.042 75.9619 19.09V22.222C75.7339 22.186 75.4519 22.15 75.1159 22.114C74.7799 22.078 74.2939 22.06 73.6579 22.06C73.1059 22.06 72.6499 22.144 72.2899 22.312C71.9419 22.48 71.6779 22.732 71.4979 23.068C71.3179 23.404 71.2279 23.836 71.2279 24.364C71.2279 24.58 71.2279 24.814 71.2279 25.066C71.2279 25.318 71.2279 25.594 71.2279 25.894C71.2399 26.194 71.2519 26.518 71.2639 26.866C71.2759 27.214 71.2879 27.592 71.2999 28H70.2559ZM76.6053 28V25.876C76.7973 25.888 76.9833 25.9 77.1633 25.912C77.3553 25.912 77.5533 25.912 77.7573 25.912C78.0933 25.912 78.3453 25.9 78.5133 25.876C78.6813 25.852 78.7953 25.81 78.8553 25.75C78.9153 25.702 78.9573 25.642 78.9813 25.57C79.0173 25.486 79.0413 25.378 79.0533 25.246C79.0653 25.102 79.0713 24.922 79.0713 24.706C79.0833 24.478 79.0893 24.196 79.0893 23.86C79.0893 23.536 79.0833 23.26 79.0713 23.032C79.0713 22.804 79.0653 22.624 79.0533 22.492C79.0413 22.348 79.0173 22.234 78.9813 22.15C78.9573 22.066 78.9153 22 78.8553 21.952C78.7953 21.892 78.6873 21.85 78.5313 21.826C78.3873 21.802 78.1773 21.79 77.9013 21.79C77.7093 21.79 77.5293 21.79 77.3613 21.79C77.2053 21.79 77.0313 21.802 76.8393 21.826V19.126H79.9353C79.9233 19.594 79.9113 20.02 79.8993 20.404C79.8993 20.776 79.8933 21.118 79.8813 21.43C79.8813 21.742 79.8813 22.042 79.8813 22.33C79.8813 22.606 79.8813 22.882 79.8813 23.158C79.8813 23.674 79.8813 24.094 79.8813 24.418C79.8933 24.73 79.9053 24.976 79.9173 25.156C79.9413 25.336 79.9653 25.468 79.9893 25.552C80.0253 25.636 80.0733 25.702 80.1333 25.75C80.2053 25.81 80.3133 25.852 80.4573 25.876C80.6013 25.9 80.8413 25.912 81.1773 25.912C81.3573 25.912 81.5313 25.912 81.6993 25.912C81.8793 25.9 82.0593 25.888 82.2393 25.876V28H76.6053ZM79.3053 17.452C78.3693 17.452 77.9013 17.074 77.9013 16.318C77.9013 15.55 78.3693 15.166 79.3053 15.166C80.2053 15.166 80.6553 15.55 80.6553 16.318C80.6553 17.074 80.2053 17.452 79.3053 17.452ZM83.6174 28C83.6294 27.136 83.6414 26.428 83.6534 25.876C83.6654 25.324 83.6714 24.868 83.6714 24.508C83.6834 24.136 83.6894 23.818 83.6894 23.554C83.6894 23.278 83.6894 23.002 83.6894 22.726C83.6894 22.438 83.6894 22.096 83.6894 21.7C83.6894 21.304 83.6894 20.968 83.6894 20.692C83.6894 20.404 83.6894 20.128 83.6894 19.864C83.6894 19.588 83.6834 19.27 83.6714 18.91C83.6714 18.538 83.6654 18.076 83.6534 17.524C83.6414 16.972 83.6294 16.264 83.6174 15.4H92.1494L92.1134 18.604C91.5974 18.592 91.1714 18.586 90.8354 18.586C90.4994 18.586 90.1934 18.586 89.9174 18.586C89.6534 18.574 89.3714 18.568 89.0714 18.568C88.7834 18.568 88.4414 18.568 88.0454 18.568C87.4334 18.568 86.9234 18.574 86.5154 18.586C86.1194 18.586 85.8014 18.592 85.5614 18.604C85.3334 18.604 85.1594 18.622 85.0394 18.658C84.9194 18.682 84.8294 18.718 84.7694 18.766C84.7334 18.79 84.6974 18.838 84.6614 18.91C84.6374 18.97 84.6194 19.066 84.6074 19.198C84.6074 19.33 84.6074 19.522 84.6074 19.774C84.6074 20.026 84.6074 20.218 84.6074 20.35C84.6194 20.482 84.6374 20.578 84.6614 20.638C84.6974 20.698 84.7334 20.746 84.7694 20.782C84.8414 20.842 84.9734 20.884 85.1654 20.908C85.3574 20.932 85.6574 20.95 86.0654 20.962C86.4734 20.974 87.0434 20.98 87.7754 20.98C88.0274 20.98 88.2434 20.98 88.4234 20.98C88.6034 20.98 88.8014 20.98 89.0174 20.98C89.2454 20.968 89.5514 20.962 89.9354 20.962C90.3314 20.95 90.8774 20.938 91.5734 20.926V22.042C90.8774 22.03 90.3314 22.024 89.9354 22.024C89.5514 22.012 89.2454 22.006 89.0174 22.006C88.8014 21.994 88.6034 21.988 88.4234 21.988C88.2434 21.988 88.0274 21.988 87.7754 21.988C87.0434 21.988 86.4734 21.994 86.0654 22.006C85.6694 22.006 85.3814 22.024 85.2014 22.06C85.0214 22.084 84.8894 22.126 84.8054 22.186C84.7454 22.234 84.7034 22.3 84.6794 22.384C84.6554 22.468 84.6374 22.588 84.6254 22.744C84.6134 22.9 84.6074 23.116 84.6074 23.392C84.6074 23.68 84.6134 23.902 84.6254 24.058C84.6374 24.214 84.6554 24.334 84.6794 24.418C84.7034 24.49 84.7454 24.55 84.8054 24.598C84.8654 24.646 84.9554 24.688 85.0754 24.724C85.1954 24.76 85.3694 24.784 85.5974 24.796C85.8254 24.808 86.1374 24.82 86.5334 24.832C86.9294 24.832 87.4334 24.832 88.0454 24.832C88.4654 24.832 88.8254 24.832 89.1254 24.832C89.4254 24.832 89.7134 24.832 89.9894 24.832C90.2654 24.82 90.5774 24.814 90.9254 24.814C91.2734 24.802 91.7054 24.79 92.2214 24.778V28H83.6174ZM93.1915 28C93.5995 26.968 93.9175 26.164 94.1455 25.588C94.3735 25 94.5355 24.562 94.6315 24.274C94.7395 23.986 94.8055 23.788 94.8295 23.68C94.8655 23.56 94.8835 23.452 94.8835 23.356C94.8835 23.272 94.8715 23.176 94.8475 23.068C94.8235 22.948 94.7635 22.762 94.6675 22.51C94.5715 22.246 94.4215 21.844 94.2175 21.304C94.0255 20.764 93.7435 20.032 93.3715 19.108H94.5955C94.7035 19.528 94.8115 19.918 94.9195 20.278C95.0395 20.626 95.1535 20.92 95.2615 21.16C95.3695 21.4 95.4595 21.574 95.5315 21.682C95.6635 21.838 95.8495 21.928 96.0895 21.952C96.3295 21.976 96.7135 21.988 97.2415 21.988C97.7695 21.988 98.1535 21.976 98.3935 21.952C98.6335 21.928 98.8195 21.838 98.9515 21.682C99.0355 21.574 99.1255 21.4 99.2215 21.16C99.3295 20.92 99.4375 20.626 99.5455 20.278C99.6655 19.918 99.7795 19.528 99.8875 19.108H101.111C100.751 20.032 100.469 20.764 100.265 21.304C100.061 21.844 99.9115 22.246 99.8155 22.51C99.7195 22.762 99.6595 22.948 99.6355 23.068C99.6115 23.176 99.5995 23.272 99.5995 23.356C99.5995 23.452 99.6115 23.56 99.6355 23.68C99.6595 23.788 99.7195 23.986 99.8155 24.274C99.9235 24.562 100.091 25 100.319 25.588C100.559 26.164 100.883 26.968 101.291 28H100.067C99.8995 27.436 99.7495 26.95 99.6175 26.542C99.4855 26.122 99.3655 25.78 99.2575 25.516C99.1495 25.24 99.0475 25.054 98.9515 24.958C98.8315 24.802 98.6455 24.712 98.3935 24.688C98.1535 24.664 97.7695 24.652 97.2415 24.652C96.7135 24.652 96.3235 24.664 96.0715 24.688C95.8315 24.712 95.6515 24.802 95.5315 24.958C95.4475 25.054 95.3455 25.24 95.2255 25.516C95.1175 25.78 94.9975 26.122 94.8655 26.542C94.7335 26.95 94.5835 27.436 94.4155 28H93.1915ZM105.823 28.198C104.575 28.198 103.639 27.82 103.015 27.064C102.391 26.308 102.079 25.162 102.079 23.626C102.079 22.09 102.391 20.926 103.015 20.134C103.639 19.33 104.575 18.928 105.823 18.928C106.399 18.928 106.867 18.994 107.227 19.126C107.587 19.258 107.881 19.42 108.109 19.612C108.337 19.804 108.511 19.996 108.631 20.188C108.787 20.392 108.901 20.536 108.973 20.62C109.045 20.692 109.111 20.728 109.171 20.728C109.255 20.728 109.303 20.686 109.315 20.602C109.327 20.518 109.333 20.38 109.333 20.188C109.333 20.068 109.327 19.912 109.315 19.72C109.303 19.516 109.285 19.318 109.261 19.126H110.305C110.305 19.474 110.299 19.846 110.287 20.242C110.275 20.626 110.263 21.016 110.251 21.412C110.251 21.808 110.251 22.192 110.251 22.564C110.251 22.936 110.251 23.29 110.251 23.626C110.251 23.938 110.251 24.28 110.251 24.652C110.251 25.012 110.251 25.384 110.251 25.768C110.263 26.152 110.275 26.536 110.287 26.92C110.299 27.292 110.305 27.652 110.305 28H109.261C109.285 27.796 109.303 27.598 109.315 27.406C109.327 27.214 109.333 27.052 109.333 26.92C109.333 26.728 109.327 26.59 109.315 26.506C109.303 26.422 109.255 26.38 109.171 26.38C109.111 26.38 109.045 26.422 108.973 26.506C108.901 26.59 108.787 26.734 108.631 26.938C108.511 27.118 108.337 27.31 108.109 27.514C107.881 27.706 107.587 27.868 107.227 28C106.867 28.132 106.399 28.198 105.823 28.198ZM106.129 25.732C107.245 25.732 108.061 25.564 108.577 25.228C109.105 24.892 109.369 24.358 109.369 23.626C109.369 22.894 109.105 22.354 108.577 22.006C108.061 21.658 107.245 21.484 106.129 21.484C105.049 21.484 104.245 21.664 103.717 22.024C103.189 22.372 102.925 22.906 102.925 23.626C102.925 24.334 103.189 24.862 103.717 25.21C104.245 25.558 105.049 25.732 106.129 25.732ZM112.408 28C112.42 27.676 112.426 27.358 112.426 27.046C112.438 26.722 112.444 26.404 112.444 26.092C112.444 25.768 112.444 25.456 112.444 25.156C112.456 24.844 112.462 24.544 112.462 24.256C112.462 23.968 112.462 23.692 112.462 23.428C112.462 23.104 112.462 22.756 112.462 22.384C112.462 22.012 112.456 21.634 112.444 21.25C112.444 20.866 112.438 20.494 112.426 20.134C112.426 19.762 112.42 19.426 112.408 19.126H113.434C113.422 19.33 113.41 19.534 113.398 19.738C113.386 19.942 113.38 20.11 113.38 20.242C113.38 20.482 113.386 20.656 113.398 20.764C113.422 20.86 113.47 20.908 113.542 20.908C113.602 20.908 113.668 20.866 113.74 20.782C113.824 20.686 113.938 20.53 114.082 20.314C114.202 20.146 114.376 19.954 114.604 19.738C114.832 19.522 115.12 19.336 115.468 19.18C115.816 19.012 116.236 18.928 116.728 18.928C117.22 18.928 117.628 19.012 117.952 19.18C118.288 19.336 118.558 19.546 118.762 19.81C118.978 20.074 119.14 20.374 119.248 20.71C119.296 20.854 119.338 20.962 119.374 21.034C119.422 21.094 119.47 21.124 119.518 21.124C119.578 21.124 119.638 21.088 119.698 21.016C119.758 20.944 119.86 20.782 120.004 20.53C120.16 20.29 120.376 20.05 120.652 19.81C120.928 19.558 121.252 19.348 121.624 19.18C122.008 19.012 122.428 18.928 122.884 18.928C123.436 18.928 123.922 19.042 124.342 19.27C124.774 19.498 125.116 19.84 125.368 20.296C125.62 20.74 125.746 21.292 125.746 21.952C125.746 22.516 125.746 23.032 125.746 23.5C125.746 23.956 125.746 24.382 125.746 24.778C125.758 25.162 125.764 25.534 125.764 25.894C125.776 26.242 125.782 26.59 125.782 26.938C125.794 27.274 125.806 27.628 125.818 28H124.774C124.786 27.664 124.798 27.352 124.81 27.064C124.822 26.776 124.828 26.5 124.828 26.236C124.84 25.972 124.846 25.72 124.846 25.48C124.858 25.24 124.864 25 124.864 24.76C124.864 24.52 124.864 24.274 124.864 24.022C124.864 23.446 124.786 23.02 124.63 22.744C124.474 22.468 124.21 22.288 123.838 22.204C123.478 22.108 122.974 22.06 122.326 22.06C121.582 22.06 121.006 22.138 120.598 22.294C120.202 22.438 119.932 22.684 119.788 23.032C119.644 23.368 119.572 23.83 119.572 24.418C119.572 24.622 119.572 24.85 119.572 25.102C119.572 25.342 119.572 25.612 119.572 25.912C119.584 26.2 119.596 26.518 119.608 26.866C119.62 27.214 119.632 27.592 119.644 28H118.6C118.612 27.664 118.618 27.352 118.618 27.064C118.63 26.776 118.642 26.5 118.654 26.236C118.666 25.972 118.672 25.72 118.672 25.48C118.684 25.228 118.69 24.988 118.69 24.76C118.69 24.52 118.69 24.274 118.69 24.022C118.69 23.446 118.612 23.02 118.456 22.744C118.3 22.468 118.036 22.288 117.664 22.204C117.292 22.108 116.782 22.06 116.134 22.06C115.402 22.06 114.832 22.132 114.424 22.276C114.028 22.42 113.752 22.666 113.596 23.014C113.452 23.35 113.38 23.818 113.38 24.418C113.38 24.622 113.38 24.85 113.38 25.102C113.38 25.342 113.38 25.612 113.38 25.912C113.392 26.2 113.404 26.518 113.416 26.866C113.428 27.214 113.44 27.592 113.452 28H112.408Z" fill="white"/>
<path d="M127.497 28C127.689 26.668 127.851 25.342 127.983 24.022C128.115 22.69 128.229 21.316 128.325 19.9C128.433 18.484 128.529 16.984 128.613 15.4H136.371C136.455 16.984 136.545 18.484 136.641 19.9C136.749 21.316 136.869 22.69 137.001 24.022C137.145 25.342 137.307 26.668 137.487 28H136.316C136.316 27.892 136.311 27.736 136.299 27.532C136.299 27.316 136.287 27.1 136.263 26.884C136.251 26.548 136.221 26.248 136.173 25.984C136.125 25.708 136.035 25.516 135.902 25.408C135.855 25.372 135.789 25.342 135.705 25.318C135.621 25.282 135.465 25.252 135.237 25.228C135.021 25.204 134.691 25.186 134.247 25.174C133.815 25.162 133.227 25.156 132.483 25.156C131.739 25.156 131.151 25.162 130.719 25.174C130.287 25.186 129.957 25.204 129.729 25.228C129.513 25.252 129.363 25.282 129.279 25.318C129.195 25.342 129.129 25.372 129.081 25.408C128.949 25.516 128.859 25.708 128.811 25.984C128.763 26.248 128.733 26.548 128.721 26.884C128.697 27.1 128.679 27.316 128.667 27.532C128.667 27.736 128.667 27.892 128.667 28H127.497ZM132.483 22.33C133.023 22.33 133.479 22.324 133.851 22.312C134.235 22.3 134.553 22.282 134.805 22.258C135.069 22.222 135.273 22.174 135.417 22.114C135.561 22.042 135.669 21.952 135.741 21.844C135.777 21.712 135.795 21.532 135.795 21.304C135.807 21.076 135.801 20.77 135.777 20.386C135.753 20.074 135.729 19.828 135.705 19.648C135.693 19.468 135.675 19.33 135.651 19.234C135.639 19.138 135.621 19.072 135.597 19.036C135.573 18.988 135.549 18.952 135.525 18.928C135.417 18.82 135.243 18.742 135.003 18.694C134.763 18.646 134.439 18.616 134.031 18.604C133.623 18.592 133.107 18.586 132.483 18.586C131.871 18.586 131.355 18.592 130.935 18.604C130.527 18.616 130.209 18.646 129.981 18.694C129.753 18.742 129.579 18.82 129.458 18.928C129.435 18.952 129.411 18.988 129.387 19.036C129.363 19.072 129.339 19.138 129.315 19.234C129.303 19.33 129.285 19.468 129.261 19.648C129.249 19.828 129.231 20.074 129.207 20.386C129.183 20.77 129.171 21.076 129.171 21.304C129.183 21.532 129.207 21.712 129.243 21.844C129.315 21.952 129.423 22.042 129.567 22.114C129.711 22.174 129.909 22.222 130.161 22.258C130.425 22.282 130.743 22.3 131.115 22.312C131.499 22.324 131.955 22.33 132.483 22.33ZM143.263 28.198C142.303 28.198 141.487 28.03 140.815 27.694C140.155 27.346 139.651 26.83 139.303 26.146C138.967 25.462 138.799 24.598 138.799 23.554C138.799 22.522 138.967 21.664 139.303 20.98C139.651 20.284 140.155 19.768 140.815 19.432C141.487 19.096 142.309 18.928 143.281 18.928C143.797 18.928 144.259 18.964 144.667 19.036C145.087 19.108 145.477 19.204 145.837 19.324V21.79C145.669 21.73 145.417 21.676 145.081 21.628C144.757 21.568 144.403 21.52 144.019 21.484C143.647 21.436 143.281 21.412 142.921 21.412C142.237 21.412 141.649 21.478 141.157 21.61C140.665 21.742 140.287 21.964 140.023 22.276C139.771 22.576 139.645 23.002 139.645 23.554C139.645 24.106 139.771 24.538 140.023 24.85C140.287 25.162 140.665 25.384 141.157 25.516C141.649 25.648 142.237 25.714 142.921 25.714C143.293 25.714 143.665 25.696 144.037 25.66C144.421 25.612 144.775 25.564 145.099 25.516C145.423 25.456 145.669 25.402 145.837 25.354V27.748C145.477 27.88 145.081 27.988 144.649 28.072C144.217 28.156 143.755 28.198 143.263 28.198ZM151.729 28.198C150.853 28.198 150.103 28.09 149.479 27.874C148.855 27.658 148.345 27.346 147.949 26.938C147.553 26.53 147.259 26.038 147.067 25.462C146.887 24.874 146.797 24.214 146.797 23.482C146.797 22.51 146.965 21.688 147.301 21.016C147.637 20.332 148.105 19.816 148.705 19.468C149.305 19.108 149.989 18.928 150.757 18.928C151.753 18.928 152.539 19.102 153.115 19.45C153.703 19.786 154.117 20.308 154.357 21.016C154.609 21.724 154.735 22.63 154.735 23.734H147.715C147.763 24.034 147.859 24.31 148.003 24.562C148.159 24.802 148.375 25.012 148.651 25.192C148.927 25.36 149.269 25.492 149.677 25.588C150.085 25.684 150.571 25.732 151.135 25.732C151.675 25.732 152.191 25.696 152.683 25.624C153.175 25.552 153.739 25.438 154.375 25.282V27.838C153.955 27.958 153.547 28.048 153.151 28.108C152.755 28.168 152.281 28.198 151.729 28.198ZM153.781 22.906C153.781 22.378 153.505 21.952 152.953 21.628C152.413 21.304 151.681 21.142 150.757 21.142C150.205 21.142 149.707 21.22 149.263 21.376C148.819 21.52 148.465 21.724 148.201 21.988C147.937 22.252 147.799 22.558 147.787 22.906H153.781Z" fill="#9239B2"/>
<defs>
<linearGradient id="paint0_linear_74_2453" x1="20.5" y1="6" x2="20.5" y2="34.9977" gradientUnits="userSpaceOnUse">
<stop/>
<stop offset="0.918457" stop-color="#15B52F" stop-opacity="0.6"/>
</linearGradient>
</defs>
</svg>
