<svg width="46" height="68" viewBox="0 0 46 68" fill="none" xmlns="http://www.w3.org/2000/svg">
<path d="M22.5031 35.5379C18.5165 37.8843 17.8057 41.5522 17.2773 46.7193L10.8455 33.0672C15.472 36.1222 18.4351 37.3715 22.5031 35.5379Z" fill="#8629FF"/>
<path d="M5.33263 43.6394C9.31924 41.293 10.3171 38.2343 10.8455 33.0672L17.2773 46.7193C12.6508 43.6643 9.40066 41.8058 5.33263 43.6394Z" fill="#8629FF"/>
<path d="M10.512 49.8181C8.44204 51.0364 8.07298 52.9409 7.79858 55.6238L4.45903 48.5353C6.86125 50.1215 8.39976 50.7702 10.512 49.8181Z" fill="#994AFF"/>
<path d="M1.59657 54.0246C3.66654 52.8063 4.18464 51.2182 4.45903 48.5353L7.79858 55.6238C5.39637 54.0376 3.70882 53.0726 1.59657 54.0246Z" fill="#994AFF"/>
<path d="M16.9681 59.9753C14.8981 61.1936 14.529 63.0981 14.2546 65.781L10.9151 58.6925C13.3173 60.2787 14.8558 60.9274 16.9681 59.9753Z" fill="#9A7CC1"/>
<path d="M8.05262 64.1819C10.1226 62.9635 10.6407 61.3754 10.9151 58.6925L14.2546 65.781C11.8524 64.1948 10.1649 63.2298 8.05262 64.1819Z" fill="#9A7CC1"/>
<path d="M26.438 58.1313C25.4045 58.7396 25.2202 59.6906 25.0832 61.0302L23.4157 57.4908C24.6151 58.2828 25.3833 58.6067 26.438 58.1313Z" fill="#7447AE"/>
<path d="M21.9864 60.2317C23.02 59.6234 23.2787 58.8304 23.4157 57.4908L25.0832 61.0302C23.8837 60.2382 23.0411 59.7563 21.9864 60.2317Z" fill="#7447AE"/>
<path d="M21.8609 53.9282C20.8273 54.5365 20.643 55.4874 20.506 56.8271L18.8386 53.2877C20.038 54.0797 20.8062 54.4036 21.8609 53.9282Z" fill="#7447AE"/>
<path d="M17.4093 56.0286C18.4429 55.4202 18.7015 54.6273 18.8386 53.2877L20.506 56.8271C19.3066 56.035 18.464 55.5532 17.4093 56.0286Z" fill="#7447AE"/>
<path d="M40.3268 10.9025C33.6569 14.8282 32.4677 20.9649 31.5835 29.6098L20.8227 6.76887C28.5632 11.8801 33.5207 13.9703 40.3268 10.9025Z" fill="#6F00FF"/>
<path d="M11.5993 24.4569C18.2692 20.5312 19.9386 15.4138 20.8227 6.76887L31.5835 29.6098C23.8431 24.4986 18.4054 21.3891 11.5993 24.4569Z" fill="#6F00FF"/>
</svg>
